<svg width="325" height="362" viewBox="0 0 325 362" fill="none" xmlns="http://www.w3.org/2000/svg">
<path d="M85.3003 273.237L77.9811 270.034L70.179 267.747C68.4128 266.336 68.5528 263.293 70.179 262.183C61.7576 262.973 49.8769 261.341 44.9892 260.426C50.1212 271.041 62.4766 272.779 68.0127 272.322C68.4342 271.941 69.1246 271.617 70.179 271.407C72.6098 271.407 76.2128 272.088 79.2921 272.67C82.598 273.295 85.3003 273.806 85.3003 273.237Z" fill="#443343"/>
<path d="M87.5914 307.293C83.1183 304.847 79.2526 302.069 77.2335 299.317C75.9987 319.449 84.299 339.428 88.6036 346.901L87.5914 307.293Z" fill="#443343"/>
<path fill-rule="evenodd" clip-rule="evenodd" d="M30.3138 194.997C39.02 184.016 55.885 188.709 63.3057 193.133C67.3784 188.831 76.8422 186.623 84.8544 185.623C86.9006 185.368 88.8521 185.192 90.595 185.08C91.8557 184.999 93.0072 184.951 94.0065 184.932C97.0754 189.528 95.2199 197.866 93.2797 203.233C92.4037 204.683 90.3605 207.489 89.0614 207.363C90.1751 207.533 92.7278 208.111 94.6921 209.181C96.7315 212.193 98.0996 215.457 98.8897 218.79C101.652 230.441 97.3491 242.93 89.966 248.433C89.165 248.866 88.3725 249.354 87.5914 249.902C88.4127 249.492 89.2057 249 89.966 248.433C94.1166 246.19 98.4962 245.44 102.713 245.632C109.625 245.946 116.098 248.791 120.406 251.733C121.77 252.664 122.916 253.604 123.791 254.478L95.8393 249.902C93.5482 249.445 88.5078 254.02 90.3407 256.308L77.0523 252.19C71.0954 251.275 70.6372 256.766 73.3865 258.138L80.7304 260.883L87.5914 265.001C88.3245 267.197 77.5105 263.781 72.0119 261.798C71.277 261.694 70.6623 261.853 70.179 262.183C61.7576 262.973 49.8769 261.341 44.9892 260.426C50.1212 271.041 62.4766 272.779 68.0127 272.322C66.6026 273.596 68.2042 275.513 69.2626 275.982L83.0092 280.1C83.7441 280.589 81.8595 280.817 79.246 281.133C76.9712 281.408 72.7376 280.37 71.566 281.93C70.1913 283.76 71.8754 284.612 76.1359 285.99L76.3835 297.944C76.6117 298.4 76.8969 298.858 77.2335 299.317C75.9987 319.449 84.299 339.428 88.6036 346.901L88.6971 350.561L88.966 361.085H18.8583L20.4851 306.18L20.946 290.624L21.1494 283.76C23.4528 282.388 25.7439 277.355 20.233 279.185C17.0149 280.254 12.0766 284.859 12.4432 283.76L17.0377 279.643L22.0781 276.44C23.9233 275.067 23.911 271.864 21.6076 272.322C17.8266 273.073 11.985 278.178 11.985 275.982L17.0377 271.864L22.5364 268.662C24.3692 267.747 24.8275 263.629 21.6076 264.086C18.985 264.61 15.9122 266.543 13.7635 267.894C12.158 268.904 11.0685 269.589 11.0685 269.119L14.7466 264.544L18.8706 261.341C20.2453 259.968 21.6199 258.596 20.7035 256.766L18.8706 256.308H16.5795L14.7343 257.223C14.0353 256.292 12.957 254.325 12.4999 252.19C12.0581 250.127 12.1964 247.909 13.8179 246.32C7.56136 238.639 4.78495 224.737 12.9014 217.417C11.4587 216.156 9.6459 214.269 7.87331 211.932L8.78975 189.086C16.0873 188.732 25.316 189.744 30.3138 194.997Z" fill="#574B57"/>
<path d="M94.6921 209.181C93.9443 208.077 93.1064 207.006 92.1736 205.978C92.5218 205.209 92.9023 204.277 93.2797 203.233C92.4037 204.683 90.3605 207.489 89.0614 207.363C90.1751 207.533 92.7278 208.111 94.6921 209.181Z" fill="#443343"/>
<path d="M8.78975 189.086C5.91731 189.226 3.34409 189.577 1.4459 189.965C-0.36268 198.22 3.64085 206.354 7.87331 211.932L8.78975 189.086Z" fill="#A49C9D"/>
<path d="M280.96 273.237C277.661 262.988 267.978 260.426 263.548 260.426C264.027 257.74 263.738 254.546 262.985 251.275C260.335 251.77 257.602 252.482 254.854 253.347C254.17 253.562 253.485 253.787 252.799 254.02C246.297 256.235 239.807 259.215 234.234 262.117C228.811 264.941 224.256 267.692 221.404 269.593C231.98 270.105 244.732 273.721 255.758 283.06C261.872 283.904 275.667 286.689 281.937 291.081C282.779 284.935 282.65 278.484 280.96 273.237Z" fill="#FFEEF0"/>
<path d="M222.321 241.808C226.139 246.794 233.868 257.836 234.234 262.117C239.807 259.215 246.297 256.235 252.799 254.02C252.799 249.994 245.31 239.65 241.566 234.982C240.535 235.259 239.464 235.57 238.358 235.91C233.556 237.387 228.09 239.429 222.321 241.808Z" fill="#FFEEF0"/>
<path d="M196.488 253.563L207.199 270.949C210.976 269.902 215.895 269.326 221.404 269.593C224.256 267.692 228.811 264.941 234.234 262.117C233.868 257.836 226.139 246.794 222.321 241.808C215.221 244.736 207.664 248.175 200.326 251.701C199.039 252.32 197.758 252.941 196.488 253.563Z" fill="#FFEEF0"/>
<path d="M262.985 251.275C261.557 245.073 258.458 238.598 255.758 234.804C254.163 233.043 250.215 233.021 244.773 234.198C248.435 238.823 255.578 249.127 254.854 253.347C257.602 252.482 260.335 251.77 262.985 251.275Z" fill="#FFEEF0"/>
<path d="M241.566 234.982C245.31 239.65 252.799 249.994 252.799 254.02C253.485 253.787 254.17 253.562 254.854 253.347C255.578 249.127 248.435 238.823 244.773 234.198C243.755 234.419 242.684 234.681 241.566 234.982Z" fill="#FFEEF0"/>
<path d="M222.321 241.808C228.09 239.429 233.556 237.387 238.358 235.91C235.059 232.829 223.39 232.036 218.655 232.188C212.497 235.414 205.761 238.3 200.326 240.387V251.701C207.664 248.175 215.221 244.736 222.321 241.808Z" fill="#FF9FAA"/>
<path d="M104.546 338.665C103.315 341.122 105.439 351.264 107.238 358.34C110.226 349.189 114.028 339.885 115.555 336.378C110.79 331.253 108.024 330.887 107.238 331.345C106.194 333.175 105.008 336.988 104.546 338.665Z" fill="#FF9FAA"/>
<path d="M136.633 261.959C133.98 261.848 131.59 261.798 129.549 261.798C132.201 268.018 133.165 276.891 132.235 285.591C134.159 283.15 138.649 279.185 141.215 282.845C142.285 285.133 145.41 290.075 149.359 291.539L136.633 266.266V261.959Z" fill="#FF9FAA"/>
<path d="M143.965 250.366C139.75 247.368 134.933 244.822 130.676 242.124C129.402 243.09 127.94 245.497 126.64 248.072C131.116 251.001 137.648 253.563 140.354 254.478C141.272 252.677 142.465 251.113 143.965 250.366Z" fill="#F295A2"/>
<path d="M123.791 254.478C126.183 255.843 128.113 258.432 129.549 261.798C131.59 261.798 133.98 261.848 136.633 261.959C136.872 261.969 137.114 261.98 137.357 261.991C137.573 262.001 137.789 262.011 138.008 262.022C138.279 260.175 139.029 257.079 140.354 254.478C137.648 253.563 131.116 251.001 126.64 248.072C125.476 250.379 124.442 252.82 123.791 254.478Z" fill="#FFEEF0"/>
<path d="M138.008 262.022C144.233 262.324 151.741 262.958 159.532 264.078C158.859 262.992 157.805 261.76 156.461 260.426C154.709 258.688 152.464 256.776 149.922 254.79C147.631 254.991 142.51 255.21 140.354 254.478C139.029 257.079 138.279 260.175 138.008 262.022Z" fill="#FFEEF0"/>
<path d="M126.64 239.379C124.936 238.332 123.552 237.066 122.278 236.201C121.635 235.765 121.021 235.43 120.406 235.277C117.53 235.277 115.219 237.637 114.34 239.379C116.412 242.307 120.485 244.768 122.262 245.632C123.241 243.051 125.07 240.554 126.64 239.379Z" fill="#F295A2"/>
<path d="M113.252 243.954C111.419 242.124 105.462 244.31 102.713 245.632C109.625 245.946 116.098 248.791 120.406 251.733C120.79 250.174 121.412 247.871 122.262 245.632C120.485 244.768 116.412 242.307 114.34 239.379C113.539 240.968 113.325 242.791 113.252 243.954Z" fill="#FFEEF0"/>
<path d="M130.676 242.124C129.166 241.167 128.05 240.245 126.64 239.379C125.07 240.554 123.241 243.051 122.262 245.632L126.64 248.072C127.94 245.497 129.402 243.09 130.676 242.124Z" fill="#F295A2"/>
<path d="M120.406 251.733C121.77 252.664 122.916 253.604 123.791 254.478C124.442 252.82 125.476 250.379 126.64 248.072L122.262 245.632C121.412 247.871 120.79 250.174 120.406 251.733Z" fill="#FFEEF0"/>
<path d="M147.106 252.648C146.087 251.891 145.037 251.129 143.965 250.366C142.465 251.113 141.272 252.677 140.354 254.478C142.51 255.21 147.631 254.991 149.922 254.79C149.018 254.084 148.076 253.368 147.106 252.648Z" fill="#F295A2"/>
<path d="M156.461 260.426C157.167 258.509 158.133 255.072 158.401 251.733L147.106 252.648C148.076 253.368 149.018 254.084 149.922 254.79C152.464 256.776 154.709 258.688 156.461 260.426Z" fill="#FF9FAA"/>
<path d="M76.3835 297.944C82.9278 297.944 88.1797 294.81 92.0514 290.166C87.8567 289.761 81.107 287.598 76.1359 285.99L76.3835 297.944Z" fill="#FF9FAA"/>
<path d="M98.5887 312.245C94.9458 310.91 91.0835 309.203 87.5914 307.293L88.6036 346.901L88.6971 350.561C91.9943 342.021 98.5887 322.4 98.5887 312.245Z" fill="#FFEEF0"/>
<path d="M188 361.085C161.881 351.934 118.75 329.057 103.171 313.761C103.104 313.742 103.037 313.722 102.969 313.702C102.95 313.696 102.93 313.69 102.911 313.684C101.534 313.275 100.08 312.791 98.5887 312.245C98.5887 322.4 91.9943 342.021 88.6971 350.561L88.966 361.085H108C107.705 360.029 107.583 359.698 107.238 358.34C105.439 351.264 103.315 341.122 104.546 338.665C105.008 336.988 106.194 333.175 107.238 331.345C108.024 330.887 110.79 331.253 115.555 336.378C114.028 339.885 110.226 349.189 107.238 358.34C107.583 359.698 107.705 360.029 108 361.085H188Z" fill="#FFEEF0"/>
<path d="M267.672 352.392L263.548 361.085H268.13L267.672 352.392Z" fill="#F295A2"/>
<path d="M130.676 242.124C134.933 244.822 139.75 247.368 143.965 250.366C145.037 251.129 146.087 251.891 147.106 252.648L158.401 251.733C158.576 249.548 158.454 247.406 157.765 245.757C144.721 244.846 132.405 241.066 122.278 236.201C123.552 237.066 124.936 238.332 126.64 239.379C128.05 240.245 129.166 241.167 130.676 242.124Z" fill="#FF9FAA"/>
<path d="M267.226 296.114L272.712 312.128C276.675 310.15 280.576 301.013 281.937 291.081C275.667 286.689 261.872 283.904 255.758 283.06C259.892 286.561 263.783 290.867 267.226 296.114Z" fill="#FF9FAA"/>
<path d="M252.105 184.674C246.072 189.984 245.578 196.41 246.148 199.115C248.134 200.488 252.836 201.861 255.758 196.37C256.373 194.845 256.504 190.371 252.105 184.674Z" fill="#F295A2"/>
<path d="M249.814 223.365C252.746 226.293 255.923 223.365 257.145 221.535L255.758 217.034L253.48 209.639C251.647 206.344 248.439 208.571 247.064 210.096L248.771 218.332L249.814 223.365Z" fill="#ACACAC"/>
<path d="M214.869 169.833C220.097 168.735 225.986 157.822 228.277 152.502C221.297 148.812 213.274 146.738 205.366 146.002C197.648 145.283 190.04 145.84 183.622 147.413C177.624 148.883 172.664 151.242 169.625 154.276V157.479C173.286 154.855 177.158 152.998 181.081 151.741C190.747 148.642 200.717 149.18 208.574 150.824C211.962 151.533 214.958 152.448 217.366 153.366C217.651 153.474 217.928 153.583 218.197 153.691C218.684 153.888 219.142 154.084 219.571 154.276C221.038 157.937 217.047 166.172 214.869 169.833Z" fill="#7C5554"/>
<path d="M138.466 160.224V155.649C123.345 142.327 110.782 139.796 102.267 140.247C101.297 140.298 100.38 140.388 99.5174 140.505C98.8759 140.593 98.2646 140.695 97.6845 140.807C95.3082 141.268 93.4545 141.901 92.1859 142.38L86.6872 145.125L98.0187 162.055C97.3331 157.223 95.8517 151.451 97.6845 148.786C102.725 141.456 129.558 148.786 138.466 160.224Z" fill="#7C5554"/>
<path d="M92.1859 11.6387C88.59 9.67559 85.0526 8.32066 81.6468 8.32066C77.5261 6.36844 74.6727 18.4725 73.4031 33.943L92.1859 11.6387Z" fill="#673C3A"/>
<path d="M271.756 36.6882C269.652 23.6607 265.769 10.9636 258.978 1C254.835 3.16422 248.036 6.59833 240.907 10.8766L271.756 36.6882Z" fill="#673C3A"/>
<path d="M272.725 92.9658C273.059 89.2955 273.411 84.7828 273.655 79.6971C264.852 81.5272 256.842 79.5446 253.938 78.3245C256.504 87.8413 267.532 92.0507 272.725 92.9658Z" fill="#FAB494"/>
<path d="M276.391 174.408C279.445 173.188 285.83 167.453 286.93 154.276C287.631 156.776 288.935 160.095 290.863 163.427C294.818 170.262 301.393 177.153 310.757 177.153C308.282 174.956 304.32 169.791 301.548 162.055C300.059 157.896 298.913 152.995 298.527 147.413C293.281 144.119 288.61 132.314 286.93 126.824C284.73 126.824 283.264 131.704 282.806 134.144C274.741 126.458 265.713 106.54 262.207 97.5412C264.263 108.995 263.942 119.957 262.652 129.112C262.211 132.237 261.657 135.152 261.047 137.805C267.383 144.82 279.323 161.963 276.391 174.408Z" fill="#FAB494"/>
<path d="M240.649 99.3714C243.674 106.356 248.22 120.082 250.377 135.517C252.171 137.957 256.036 144.302 257.145 150.158C258.374 147.375 259.825 143.117 261.047 137.805C261.657 135.152 262.211 132.237 262.652 129.112C257.137 114.104 245.686 103.032 240.649 99.3714Z" fill="#FAB494"/>
<path d="M218.197 148.438C217.28 144.32 217.28 133.229 215.447 123.621C213.614 133.138 207.963 142.507 205.366 146.002C209.671 146.402 214.01 147.2 218.197 148.438Z" fill="#FAB494"/>
<path d="M215.447 32.5703C217.654 28.9293 221.009 25.3864 224.936 22.0469C220.964 20.3793 214.15 18.3946 206.283 17.6757C209.145 21.268 214.985 29.276 215.447 32.5703Z" fill="#FCF0D4"/>
<path d="M73.9207 75.1217C76.06 72.9966 78.1985 71.0303 80.2722 69.2474C82.5135 67.3204 84.6789 65.6077 86.6872 64.1407C86.8939 63.6789 87.1025 63.2213 87.3131 62.7681C79.8475 62.7681 74.4435 57.8876 72.6747 55.4474C72.7565 62.5508 73.1632 69.4005 73.9207 75.1217Z" fill="#FAB494"/>
<path d="M86.6872 64.1407C84.6789 65.6077 82.5135 67.3204 80.2722 69.2474C78.138 73.0694 76.3269 76.9021 74.7984 80.6122C79.9106 81.3442 84.8544 74.8166 86.6872 71.4613C86.4319 72.5277 86.1737 73.771 85.9413 75.1217C89.4707 74.0236 97.9414 64.5982 101.736 60.0228C107.62 50.3746 114.994 41.5376 122.428 35.573L124.72 24.0978C123.284 24.7285 121.853 25.4164 120.432 26.1648C107.816 32.8083 95.9307 44.2202 87.3131 62.7681C87.1025 63.2213 86.8939 63.6789 86.6872 64.1407Z" fill="#FCF0D4"/>
<path d="M80.2722 69.2474C78.1985 71.0303 76.06 72.9966 73.9207 75.1217C71.1024 77.9211 68.2829 80.996 65.6091 84.2897L74.7984 80.6122C76.3269 76.9021 78.138 73.0694 80.2722 69.2474Z" fill="#FCF0D4"/>
<path d="M99.5174 140.505C100.38 140.388 101.297 140.298 102.267 140.247C103.808 139.233 105.856 137.784 108.224 135.976C107.613 131.705 107.124 121.516 110.056 114.928C97.9595 129.935 96.7681 138.434 97.6845 140.807C98.2646 140.695 98.8759 140.593 99.5174 140.505Z" fill="#FAB494"/>
<path d="M70.1862 155.649C70.2862 155.301 70.3817 154.951 70.4724 154.599C71.1567 151.949 71.566 149.22 71.566 146.498C73.3989 142.228 77.0646 132.314 77.0646 126.824C69.3665 134.145 66.2234 142.991 65.6141 146.498C66.7486 150.366 68.2847 153.626 70.1862 155.649Z" fill="#FAB494"/>
<path fill-rule="evenodd" clip-rule="evenodd" d="M187.496 152.502C180.413 151.961 171.366 168.882 178.331 183.158C178.594 183.515 178.898 183.879 179.248 184.236C181.997 183.4 188.652 182.461 193.275 185.389C200.057 178.869 202.617 152.904 187.496 152.502ZM188.87 164.398C188.412 163.178 186.946 161.47 184.746 164.398C184.572 164.725 184.419 165.108 184.288 165.536C183.503 168.105 183.503 172.307 184.288 175.837C184.746 176.752 184.197 178.399 187.496 177.667C189.241 176.36 190.903 170.492 189.16 165.195C189.072 164.928 188.976 164.662 188.87 164.398Z" fill="url(#paint0_linear_1_295)"/>
<path fill-rule="evenodd" clip-rule="evenodd" d="M124.72 154.276C113.264 155.649 109.507 168.882 116.472 183.158C116.726 183.503 116.987 183.869 117.267 184.236C118.529 182.485 123.083 179.624 131.198 182.186C135.403 173.407 134.873 156.374 124.72 154.276ZM122.428 163.885C124.628 160.956 126.094 162.665 126.552 163.885C128.752 169.375 126.552 175.781 124.72 177.153C121.42 177.885 121.97 176.238 121.512 174.866C120.596 170.748 121.207 166.172 122.428 163.885Z" fill="url(#paint1_linear_1_295)"/>
<path d="M124.72 177.153C126.552 175.781 128.752 169.375 126.552 163.885C125.178 165.715 123.162 165.715 122.428 163.885C121.207 166.172 120.596 170.748 121.512 174.866C121.97 176.238 121.42 177.885 124.72 177.153Z" fill="#722D2F"/>
<path d="M184.288 175.837C184.746 176.752 184.197 178.399 187.496 177.667C189.241 176.36 190.903 170.492 189.16 165.195C187.995 165.826 185.388 166.777 184.288 165.536C183.503 168.105 183.503 172.307 184.288 175.837Z" fill="#722D2F"/>
<path d="M126.094 187.275C128.151 186.821 129.9 184.897 131.198 182.186C123.083 179.624 118.529 182.485 117.267 184.236C118.843 186.295 121.038 188.393 126.094 187.275Z" fill="#FFDCCD"/>
<path d="M189.787 187.275C190.959 187.145 192.151 186.47 193.275 185.389C188.652 182.461 181.997 183.4 179.248 184.236C181.137 186.161 184.375 187.876 189.787 187.275Z" fill="#FFDCCD"/>
<path fill-rule="evenodd" clip-rule="evenodd" d="M246.148 199.115C245.578 196.41 246.072 189.984 252.105 184.674C256.504 190.371 256.373 194.845 255.758 196.37C252.836 201.861 248.134 200.488 246.148 199.115Z" fill="#FFD4D9"/>
<path d="M194.401 126.366C192.65 132.829 189.738 138.514 187.155 142.564C185.821 144.655 184.575 146.311 183.622 147.413C190.04 145.84 197.648 145.283 205.366 146.002C201.711 142.049 193.911 131.399 194.401 126.366Z" fill="#FEEAE3"/>
<path d="M217.366 153.366C214.958 152.448 211.962 151.533 208.574 150.824C214.073 153.586 216.821 158.547 217.508 160.682C218.118 158.005 218.441 155.564 218.197 153.691C217.928 153.583 217.651 153.474 217.366 153.366Z" fill="#FAB494"/>
<path d="M250.377 135.517C251.705 145.022 252.127 155.174 250.73 164.8C258.096 163.618 271.464 170.578 274.45 185.389C279.221 181.729 289.183 172.212 290.863 163.427C288.935 160.095 287.631 156.776 286.93 154.276C285.83 167.453 279.445 173.188 276.391 174.408C279.323 161.963 267.383 144.82 261.047 137.805C259.825 143.117 258.374 147.375 257.145 150.158C256.036 144.302 252.171 137.957 250.377 135.517Z" fill="#673C3A"/>
<path d="M243.327 167.087C242.867 161.908 242.075 156.13 240.907 150.158C240.807 159.513 238.4 167.186 235.369 173.035L237.9 174.408C238.511 172.12 240.452 167.453 243.327 167.087Z" fill="#673C3A"/>
<path d="M156.461 260.426C157.805 261.76 158.859 262.992 159.532 264.078C164.882 262.098 174.574 254.569 181.539 243.954C173.561 245.824 165.534 246.299 157.765 245.757C158.454 247.406 158.576 249.548 158.401 251.733C158.133 255.072 157.167 258.509 156.461 260.426Z" fill="#FFCCD2"/>
<path fill-rule="evenodd" clip-rule="evenodd" d="M123.791 254.478L95.8393 249.902C93.5482 249.445 88.5078 254.02 90.3407 256.308L93.1023 257.608L97.0034 255.393C101.872 262.542 100.655 277.376 94.0232 287.497C93.4118 288.43 92.7543 289.323 92.0514 290.166C88.1797 294.81 82.9278 297.944 76.3835 297.944C76.6117 298.4 76.8969 298.858 77.2335 299.317C79.2526 302.069 83.1183 304.847 87.5914 307.293C91.0835 309.203 94.9458 310.91 98.5887 312.245C100.08 312.791 101.534 313.275 102.911 313.684L102.969 313.702C103.037 313.722 103.104 313.742 103.171 313.761C118.75 329.057 161.881 351.934 188 361.085H231.473H263.548L267.672 352.392C272.254 345.529 275.92 323.109 272.712 312.128L267.226 296.114C263.783 290.867 259.892 286.561 255.758 283.06C244.732 273.721 231.98 270.105 221.404 269.593C215.895 269.326 210.976 269.902 207.199 270.949L196.488 253.563C194.214 254.676 191.974 255.79 189.787 256.892C183.126 260.251 176.968 263.499 171.904 266.266C167.799 265.388 163.626 264.666 159.532 264.078C151.741 262.958 144.233 262.324 138.008 262.022C137.789 262.011 137.573 262.001 137.357 261.991C137.114 261.98 136.872 261.969 136.633 261.959V266.266L149.359 291.539C145.41 290.075 142.285 285.133 141.215 282.845C138.649 279.185 134.159 283.15 132.235 285.591C133.165 276.891 132.201 268.018 129.549 261.798C128.113 258.432 126.183 255.843 123.791 254.478Z" fill="#FFEEF0"/>
<path d="M18.8706 261.341C20.2453 259.968 21.6199 258.596 20.7035 256.766L18.8706 256.308H16.5795L14.7343 257.223C4.10359 270.034 7.25004 281.778 10.1521 286.048C10.8394 286.963 12.6979 287.955 14.8045 288.793C14.8326 288.805 14.8607 288.816 14.889 288.827L17.9542 286.048L21.1494 283.76C23.4528 282.388 25.7439 277.355 20.233 279.185C17.0149 280.254 12.0766 284.859 12.4432 283.76L17.0377 279.643L22.0781 276.44C23.9233 275.067 23.911 271.864 21.6076 272.322C17.8266 273.073 11.985 278.178 11.985 275.982L17.0377 271.864L22.5364 268.662C24.3692 267.747 24.8275 263.629 21.6076 264.086C18.985 264.61 15.9122 266.543 13.7635 267.894C12.158 268.904 11.0685 269.589 11.0685 269.119L14.7466 264.544L18.8706 261.341Z" fill="#FFE9E3"/>
<path d="M10.1521 286.048C7.25004 281.778 4.10359 270.034 14.7343 257.223C14.0353 256.292 12.957 254.325 12.4999 252.19C-7.26028 271.864 2.36235 299.317 20.4851 306.18L20.946 290.624C19.2883 290.323 16.9738 289.651 14.889 288.827C14.8607 288.816 14.8326 288.805 14.8045 288.793C12.6979 287.955 10.8394 286.963 10.1521 286.048Z" fill="#FFEEF0"/>
<path d="M21.1494 283.76L17.9542 286.048L14.889 288.827C16.9738 289.651 19.2883 290.323 20.946 290.624L21.1494 283.76Z" fill="#FF9FAA"/>
<path fill-rule="evenodd" clip-rule="evenodd" d="M77.0523 252.19L90.3407 256.308L93.1023 257.608L99.1794 260.426C101.181 268.211 99.3466 279.373 94.0232 287.497C93.4118 288.43 92.7543 289.323 92.0514 290.166C87.8567 289.761 81.107 287.598 76.1359 285.99C71.8754 284.612 70.1913 283.76 71.566 281.93C72.7376 280.37 76.9712 281.408 79.246 281.133C81.8595 280.817 83.7441 280.589 83.0092 280.1L69.2626 275.982C68.2042 275.513 66.6026 273.596 68.0127 272.322C68.4342 271.941 69.1246 271.617 70.179 271.407C72.6098 271.407 76.2128 272.088 79.2921 272.67C82.598 273.295 85.3003 273.806 85.3003 273.237L77.9811 270.034L70.179 267.747C68.4128 266.336 68.5528 263.293 70.179 262.183C70.6623 261.853 71.277 261.694 72.0119 261.798C77.5105 263.781 88.3245 267.197 87.5914 265.001L80.7304 260.883L73.3865 258.138C70.6372 256.766 71.0954 251.275 77.0523 252.19Z" fill="#FFE9E3"/>
<path d="M93.1023 257.608L99.1794 260.426C98.6874 258.513 97.9638 256.803 97.0034 255.393L93.1023 257.608Z" fill="#FF9FAA"/>
<path d="M272.725 39.891C274.276 52.954 274.161 69.1574 273.655 79.6971C273.411 84.7828 273.059 89.2955 272.725 92.9658C274.318 89.6436 276.105 84.975 277.456 79.6971C280.508 67.7717 281.406 49.533 272.725 39.891Z" fill="#FCF0D4"/>
<path d="M123.239 122.954C126.186 125.171 130.151 127.161 134.723 127.896C134.189 121.901 134.245 115.663 135.119 109.437C131.571 114.252 127.426 118.832 123.239 122.954Z" fill="#FEEAE3"/>
<path d="M242.482 187.677C245.843 183.559 249.468 173.493 250.73 164.8C252.127 155.174 251.705 145.022 250.377 135.517C248.22 120.082 243.674 106.356 240.649 99.3714C245.686 103.032 257.137 114.104 262.652 129.112C263.942 119.957 264.263 108.995 262.207 97.5412C265.713 106.54 274.741 126.458 282.806 134.144C283.264 131.704 284.73 126.824 286.93 126.824C288.61 132.314 293.281 144.119 298.527 147.413C298.913 152.995 300.059 157.896 301.548 162.055C305.382 157.479 312.59 144.485 310.757 129.112C314.423 134.602 322.029 148.42 323.129 159.767C325.204 146.862 324.365 116.738 311.674 87.9328C301.096 90.4951 293.835 87.4753 291.512 85.6451C284.511 85.6451 279.239 81.6798 277.456 79.6971C276.105 84.975 274.318 89.6436 272.725 92.9658C267.532 92.0507 256.504 87.8413 253.938 78.3245C256.842 79.5446 264.852 81.5272 273.655 79.6971C274.161 69.1574 274.276 52.954 272.725 39.891C272.642 39.1904 272.267 37.6033 271.756 36.6882L240.907 10.8766C235.426 14.1656 229.75 17.9535 224.936 22.0469C221.009 25.3864 217.654 28.9293 215.447 32.5703C214.985 29.276 209.145 21.268 206.283 17.6757C197.601 16.8823 187.636 17.6303 178.79 22.0469C166.488 17.6853 145.039 15.1731 124.72 24.0978L122.428 35.573C114.994 41.5376 107.62 50.3746 101.736 60.0228C94.4423 71.981 89.4366 85.1853 89.4366 95.711C84.152 93.5383 84.6448 82.6574 85.9413 75.1217C86.1737 73.771 86.4319 72.5277 86.6872 71.4613C84.8544 74.8166 79.9106 81.3442 74.7984 80.6122L65.6091 84.2897C51.9798 101.078 42.1348 123.552 55.5282 144.21C55.5282 137.347 57.5444 121.882 65.6091 114.928C62.4259 122.079 62.6435 136.371 65.6141 146.498C66.2234 142.991 69.3665 134.145 77.0646 126.824C77.0646 132.314 73.3989 142.228 71.566 146.498C71.566 149.22 71.1567 151.949 70.4724 154.599C70.3817 154.951 70.2862 155.301 70.1862 155.649C67.5904 164.689 61.953 172.682 58.7358 176.238C64.2344 178.068 73.8215 173.188 77.64 170.29C79.1992 177.062 82.6797 182.882 84.8544 185.623C85.1598 181.427 86.229 171.754 88.0619 166.63C88.7002 167.871 89.5631 169.447 90.595 171.205C94.255 177.441 100.041 185.967 105.474 189.965C104.106 186.423 102.255 180.939 100.667 174.866C99.5841 170.726 98.6229 166.313 98.0187 162.055L86.6872 145.125L92.1859 142.38C93.4545 141.901 95.3082 141.268 97.6845 140.807C96.7681 138.434 97.9595 129.935 110.056 114.928C107.124 121.516 107.613 131.705 108.224 135.976C112.542 132.678 117.925 128.185 123.239 122.954C127.426 118.832 131.571 114.252 135.119 109.437C134.245 115.663 134.189 121.901 134.723 127.896C135.474 136.339 137.394 144.301 139.845 151.074C142.096 157.293 144.795 162.509 147.447 166.172C144.951 170.373 141.387 173.249 139.383 174.408C145.248 177.015 150.991 171.529 153.129 168.46C154.596 178.709 168.098 184.932 174.666 186.762C174.094 185.962 173.579 185.116 173.118 184.236C170.277 178.818 169.433 172.116 169.383 167.087C172.671 163.885 179.614 156.331 181.081 151.741C177.158 152.998 173.286 154.855 169.625 157.479V154.276C172.664 151.242 177.624 148.883 183.622 147.413C184.575 146.311 185.821 144.655 187.155 142.564C189.738 138.514 192.65 132.829 194.401 126.366C193.911 131.399 201.711 142.049 205.366 146.002C207.963 142.507 213.614 133.138 215.447 123.621C217.28 133.229 217.28 144.32 218.197 148.438C221.7 149.475 225.097 150.821 228.277 152.502C225.986 157.822 220.097 168.735 214.869 169.833C212.714 176.56 209.472 183.326 206.283 187.275C212.24 187.677 220.397 181.847 221.404 177.153C221.404 182.949 222.779 195.089 228.277 197.285C227.361 194.845 225.528 189.049 225.528 185.389C228.138 183.494 232.113 179.317 235.369 173.035C238.4 167.186 240.807 159.513 240.907 150.158C242.075 156.13 242.867 161.908 243.327 167.087C244.238 177.347 243.845 185.258 242.482 187.677Z" fill="url(#paint2_linear_1_295)"/>
<path d="M120.432 26.1648C111.498 26.1648 101.64 16.7999 92.1859 11.6387L73.4031 33.943C72.8435 40.7622 72.5917 48.2355 72.6747 55.4474C74.4435 57.8876 79.8475 62.7681 87.3131 62.7681C95.9307 44.2202 107.816 32.8083 120.432 26.1648Z" fill="#FEE0A4"/>
<path d="M85.9413 75.1217C84.6448 82.6574 84.152 93.5383 89.4366 95.711C89.4366 85.1853 94.4423 71.981 101.736 60.0228C97.9414 64.5982 89.4707 74.0236 85.9413 75.1217Z" fill="#FBE0A9"/>
<path d="M311.674 87.9328C303.815 70.0987 291.884 52.313 272.725 39.891C281.406 49.533 280.508 67.7717 277.456 79.6971C279.239 81.6798 284.511 85.6451 291.512 85.6451C293.835 87.4753 301.096 90.4951 311.674 87.9328Z" fill="#FCF0D4"/>
<path d="M214.869 169.833C217.047 166.172 221.038 157.937 219.571 154.276C219.142 154.084 218.684 153.888 218.197 153.691C218.441 155.564 218.118 158.005 217.508 160.682C216.845 163.596 215.844 166.79 214.869 169.833Z" fill="#FBE0A9"/>
<path fill-rule="evenodd" clip-rule="evenodd" d="M159.532 264.078C163.626 264.666 167.799 265.388 171.904 266.266C176.968 263.499 183.126 260.251 189.787 256.892C191.974 255.79 194.214 254.676 196.488 253.563C197.758 252.941 199.039 252.32 200.326 251.701V240.387C205.761 238.3 212.497 235.414 218.655 232.188C219.093 231.958 219.528 231.727 219.96 231.494C228.315 226.987 235.319 221.897 236.067 217.417C238.633 219.613 245.606 218.942 248.771 218.332L247.064 210.096C248.439 208.571 251.647 206.344 253.48 209.639L255.758 217.034C267.499 215.876 274.703 200.03 275.016 193.167C275.143 190.371 274.932 187.778 274.45 185.389C271.464 170.578 258.096 163.618 250.73 164.8C249.468 173.493 245.843 183.559 242.482 187.677C243.845 185.258 244.238 177.347 243.327 167.087C240.452 167.453 238.511 172.12 237.9 174.408L235.369 173.035C232.113 179.317 228.138 183.494 225.528 185.389C225.528 189.049 227.361 194.845 228.277 197.285C222.779 195.089 221.404 182.949 221.404 177.153C220.397 181.847 212.24 187.677 206.283 187.275C202.25 190.525 181.997 190.88 173.118 184.236C173.579 185.116 174.094 185.962 174.666 186.762C168.098 184.932 154.596 178.709 153.129 168.46C150.991 171.529 145.248 177.015 139.383 174.408C141.387 173.249 144.951 170.373 147.447 166.172C144.795 162.509 142.096 157.293 139.845 151.074C137.394 144.301 135.474 136.339 134.723 127.896C130.151 127.161 126.186 125.171 123.239 122.954C117.925 128.185 112.542 132.678 108.224 135.976C105.856 137.784 103.808 139.233 102.267 140.247C110.782 139.796 123.345 142.327 138.466 155.649V160.224C138.466 182.552 128.08 189.354 122.887 189.965C120.954 190.192 117.388 190.541 115.097 189.049C111.584 186.762 103.78 180.722 100.667 174.866C102.255 180.939 104.106 186.423 105.474 189.965C100.041 185.967 94.255 177.441 90.595 171.205C90.4219 174.805 90.4965 178.873 90.5529 181.956C90.5754 183.184 90.595 184.256 90.595 185.08C91.8557 184.999 93.0072 184.951 94.0065 184.932C97.0754 189.528 95.2199 197.866 93.2797 203.233C92.9023 204.277 92.5218 205.209 92.1736 205.978C93.1064 207.006 93.9443 208.077 94.6921 209.181C96.7315 212.193 98.0996 215.457 98.8897 218.79C102.628 224.03 110.323 230.164 120.406 235.277C121.021 235.43 121.635 235.765 122.278 236.201C132.405 241.066 144.721 244.846 157.765 245.757C165.534 246.299 173.561 245.824 181.539 243.954C174.574 254.569 164.882 262.098 159.532 264.078ZM246.148 199.115C245.578 196.41 246.072 189.984 252.105 184.674C256.504 190.371 256.373 194.845 255.758 196.37C252.836 201.861 248.134 200.488 246.148 199.115Z" fill="#FEEAE3"/>
<path d="M69.7208 200.946C69.2625 199.573 65.5968 194.498 63.3057 193.133M63.3057 193.133C55.885 188.709 39.02 184.016 30.3138 194.997C25.316 189.744 16.0873 188.732 8.78975 189.086M63.3057 193.133C67.3784 188.831 76.8422 186.623 84.8544 185.623M123.791 254.478L95.8393 249.902C93.5483 249.445 88.5078 254.02 90.3407 256.308M123.791 254.478C126.183 255.843 128.113 258.432 129.549 261.798M123.791 254.478C122.916 253.604 121.77 252.664 120.406 251.733M123.791 254.478C124.442 252.82 125.476 250.379 126.64 248.072M90.3407 256.308L77.0523 252.19C71.0954 251.275 70.6372 256.766 73.3865 258.138L80.7304 260.883L87.5914 265.001C88.3245 267.197 77.5105 263.781 72.0119 261.798C71.277 261.694 70.6623 261.853 70.179 262.183M90.3407 256.308L93.1023 257.608M22.5241 251.733C19.3814 251.471 16.3211 249.394 13.8179 246.32M13.8179 246.32C7.56136 238.639 4.78495 224.737 12.9014 217.417C11.4587 216.156 9.6459 214.269 7.87331 211.932M13.8179 246.32C12.1964 247.909 12.0581 250.127 12.4999 252.19M14.7343 257.223C4.10359 270.034 7.25004 281.778 10.1521 286.048C10.8394 286.963 12.6979 287.955 14.8045 288.793M14.7343 257.223C14.0353 256.292 12.957 254.325 12.4999 252.19M14.7343 257.223L16.5795 256.308H18.8706L20.7035 256.766C21.6199 258.596 20.2453 259.968 18.8706 261.341L14.7466 264.544L11.0685 269.119C11.0685 269.589 12.158 268.904 13.7635 267.894C15.9122 266.543 18.985 264.61 21.6076 264.086C24.8275 263.629 24.3692 267.747 22.5364 268.662L17.0377 271.864L11.985 275.982C11.985 278.178 17.8266 273.073 21.6076 272.322C23.911 271.864 23.9233 275.067 22.0781 276.44L17.0377 279.643L12.4432 283.76C12.0766 284.859 17.0149 280.254 20.233 279.185C25.7439 277.355 23.4528 282.388 21.1494 283.76M21.1494 283.76L20.4851 306.18M21.1494 283.76L20.946 290.624M21.1494 283.76L17.9542 286.048L14.889 288.827M14.889 288.827C16.9738 289.651 19.2883 290.323 20.946 290.624M14.889 288.827C14.8607 288.816 14.8326 288.805 14.8045 288.793M20.946 290.624L20.4851 306.18M20.946 290.624C19.2659 290.319 16.9111 289.632 14.8045 288.793M12.4999 252.19C-7.26028 271.864 2.36235 299.317 20.4851 306.18M20.4851 306.18L18.8583 361.085H88.966M117.376 313.043C126.188 308.965 130.968 297.437 132.235 285.591M99.1794 260.426L93.1023 257.608M99.1794 260.426C101.181 268.211 99.3466 279.373 94.0232 287.497M99.1794 260.426C98.6874 258.513 97.9638 256.803 97.0034 255.393M97.0034 255.393L93.1023 257.608M97.0034 255.393C101.872 262.542 100.655 277.376 94.0232 287.497M76.3835 297.944L76.1359 285.99M76.3835 297.944C76.6117 298.4 76.8969 298.858 77.2335 299.317M76.3835 297.944C82.9278 297.944 88.1797 294.81 92.0514 290.166M76.3835 297.944C84.1159 297.944 90.0442 293.569 94.0232 287.497M107.753 314.873C106.339 314.619 104.717 314.22 102.969 313.702M92.0514 290.166C87.8567 289.761 81.107 287.598 76.1359 285.99M92.0514 290.166C92.7543 289.323 93.4118 288.43 94.0232 287.497M76.1359 285.99C71.8754 284.612 70.1913 283.76 71.566 281.93C72.7376 280.37 76.9712 281.408 79.246 281.133C81.8595 280.817 83.7441 280.589 83.0092 280.1L69.2626 275.982C68.2042 275.513 66.6026 273.596 68.0127 272.322M87.5914 307.293C91.0835 309.203 94.9458 310.91 98.5887 312.245M87.5914 307.293C83.1183 304.847 79.2526 302.069 77.2335 299.317M87.5914 307.293L88.6036 346.901M88.966 361.085L88.6971 350.561M88.966 361.085H108M198.939 275.982C191.805 271.566 182.06 268.439 171.904 266.266M129.549 261.798C131.59 261.798 133.98 261.848 136.633 261.959M129.549 261.798C132.201 268.018 133.165 276.891 132.235 285.591M195.273 291.539C201.23 299.774 224.141 341.106 231.473 361.085M231.473 361.085H188M231.473 361.085H263.548M188 361.085C161.881 351.934 118.75 329.057 103.171 313.761C103.104 313.742 103.037 313.722 102.969 313.702M188 361.085H108M98.5887 312.245C98.5887 322.4 91.9943 342.021 88.6971 350.561M98.5887 312.245C100.08 312.791 101.534 313.275 102.911 313.684M88.6971 350.561L88.6036 346.901M108 361.085C107.705 360.029 107.583 359.698 107.238 358.34M263.548 361.085L267.672 352.392M263.548 361.085H268.13L267.672 352.392M267.672 352.392C272.254 345.529 275.92 323.109 272.712 312.128M272.712 312.128L267.226 296.114C263.783 290.867 259.892 286.561 255.758 283.06M272.712 312.128C276.675 310.15 280.576 301.013 281.937 291.081M171.904 266.266C167.799 265.388 163.626 264.666 159.532 264.078M171.904 266.266C176.968 263.499 183.126 260.251 189.787 256.892M159.532 264.078C151.741 262.958 144.233 262.324 138.008 262.022M159.532 264.078C158.859 262.992 157.805 261.76 156.461 260.426M159.532 264.078C164.882 262.098 174.574 254.569 181.539 243.954C173.561 245.824 165.534 246.299 157.765 245.757M120.406 235.277C117.53 235.277 115.219 237.637 114.34 239.379M120.406 235.277C121.021 235.43 121.635 235.765 122.278 236.201M120.406 235.277C110.323 230.164 102.628 224.03 98.8897 218.79M102.713 245.632C105.462 244.31 111.419 242.124 113.252 243.954C113.325 242.791 113.539 240.968 114.34 239.379M102.713 245.632C109.625 245.946 116.098 248.791 120.406 251.733M102.713 245.632C98.4962 245.44 94.1166 246.19 89.966 248.433M196.488 253.563L207.199 270.949C210.976 269.902 215.895 269.326 221.404 269.593M196.488 253.563C194.214 254.676 191.974 255.79 189.787 256.892M196.488 253.563C197.758 252.941 199.039 252.32 200.326 251.701M189.787 256.892L201.242 273.237M262.985 251.275C263.738 254.546 264.027 257.74 263.548 260.426C267.978 260.426 277.661 262.988 280.96 273.237C282.65 278.484 282.779 284.935 281.937 291.081M262.985 251.275C261.557 245.073 258.458 238.598 255.758 234.804C254.163 233.043 250.215 233.021 244.773 234.198M262.985 251.275C260.335 251.77 257.602 252.482 254.854 253.347M221.404 269.593C224.256 267.692 228.811 264.941 234.234 262.117M221.404 269.593C231.98 270.105 244.732 273.721 255.758 283.06M234.234 262.117C233.868 257.836 226.139 246.794 222.321 241.808M234.234 262.117C239.807 259.215 246.297 256.235 252.799 254.02M222.321 241.808C228.09 239.429 233.556 237.387 238.358 235.91M222.321 241.808C215.221 244.736 207.664 248.175 200.326 251.701M252.799 254.02C252.799 249.994 245.31 239.65 241.566 234.982M252.799 254.02C253.485 253.787 254.17 253.562 254.854 253.347M241.566 234.982C242.684 234.681 243.755 234.419 244.773 234.198M241.566 234.982C240.535 235.259 239.464 235.569 238.358 235.91M254.854 253.347C255.578 249.127 248.435 238.823 244.773 234.198M168.251 329.057L149.359 291.539M136.633 261.959V266.266L149.359 291.539M136.633 261.959C136.872 261.969 137.114 261.98 137.357 261.991C137.573 262.001 137.789 262.011 138.008 262.022M143.965 250.366C139.75 247.368 134.933 244.822 130.676 242.124M143.965 250.366C145.037 251.129 146.087 251.891 147.106 252.648M143.965 250.366C142.465 251.113 141.272 252.677 140.354 254.478M138.008 262.022C138.279 260.175 139.029 257.079 140.354 254.478M130.676 242.124C129.166 241.167 128.05 240.245 126.64 239.379M130.676 242.124C129.402 243.09 127.94 245.497 126.64 248.072M126.64 239.379C125.07 240.554 123.241 243.051 122.262 245.632M126.64 239.379C124.936 238.332 123.552 237.066 122.278 236.201M120.406 251.733C120.79 250.174 121.412 247.871 122.262 245.632M238.358 235.91C235.059 232.829 223.39 232.036 218.655 232.188M218.655 232.188C212.497 235.414 205.761 238.3 200.326 240.387M218.655 232.188C219.093 231.958 219.528 231.727 219.96 231.494M157.711 245.632C157.73 245.673 157.747 245.715 157.765 245.757M156.461 260.426C157.167 258.509 158.133 255.072 158.401 251.733M156.461 260.426C154.709 258.688 152.464 256.776 149.922 254.79M158.401 251.733L147.106 252.648M158.401 251.733C158.576 249.548 158.454 247.406 157.765 245.757M147.106 252.648C148.076 253.368 149.018 254.084 149.922 254.79M196.488 241.808C197.665 241.39 198.954 240.914 200.326 240.387M200.326 240.387V251.701M200.326 240.387C206.148 238.151 213.462 234.999 219.96 231.494M98.8897 218.79C101.652 230.441 97.3491 242.93 89.966 248.433M98.8897 218.79C98.0996 215.457 96.7315 212.193 94.6921 209.181M98.8897 218.79C102.856 224.35 111.276 230.916 122.278 236.201M250.73 164.8C249.468 173.493 245.843 183.559 242.482 187.677C243.845 185.258 244.238 177.347 243.327 167.087M250.73 164.8C252.127 155.174 251.705 145.022 250.377 135.517M250.73 164.8C258.096 163.618 271.464 170.578 274.45 185.389M230.569 118.131C235.426 127.831 238.786 139.314 240.907 150.158M253.48 183.559C252.992 183.924 252.534 184.296 252.105 184.674M248.771 218.332L247.064 210.096C248.439 208.571 251.647 206.344 253.48 209.639L255.758 217.034M248.771 218.332L249.814 223.365C252.746 226.293 255.923 223.365 257.145 221.535L255.758 217.034M248.771 218.332C245.606 218.942 238.633 219.613 236.067 217.417C235.319 221.897 228.315 226.987 219.96 231.494M255.758 217.034C267.499 215.876 274.703 200.03 275.016 193.167C275.143 190.371 274.932 187.778 274.45 185.389M159.086 218.79C152.213 208.266 146.714 212.384 143.048 217.875M260.811 91.1356C261.364 93.2821 261.826 95.4201 262.207 97.5412M250.377 135.517C248.22 120.082 243.674 106.356 240.649 99.3714C245.686 103.032 257.137 114.104 262.652 129.112M250.377 135.517C252.171 137.957 256.036 144.302 257.145 150.158C258.374 147.375 259.825 143.117 261.047 137.805M261.047 137.805C267.383 144.82 279.323 161.963 276.391 174.408C279.445 173.188 285.83 167.453 286.93 154.276C287.631 156.776 288.935 160.095 290.863 163.427M261.047 137.805C261.657 135.152 262.211 132.237 262.652 129.112M298.385 143.295C298.385 144.706 298.434 146.079 298.527 147.413M290.863 163.427C294.818 170.262 301.393 177.153 310.757 177.153C308.282 174.956 304.32 169.791 301.548 162.055M290.863 163.427C289.183 172.212 279.221 181.729 274.45 185.389M272.725 39.891C272.642 39.1904 272.267 37.6033 271.756 36.6882M272.725 39.891C274.276 52.954 274.161 69.1574 273.655 79.6971M272.725 39.891C291.884 52.313 303.816 70.0987 311.674 87.9328M272.725 39.891C281.406 49.533 280.508 67.7717 277.456 79.6971M301.548 162.055C305.382 157.479 312.59 144.485 310.757 129.112C314.423 134.602 322.029 148.42 323.129 159.767C325.204 146.862 324.365 116.738 311.674 87.9328M301.548 162.055C300.059 157.896 298.913 152.996 298.527 147.413M266.31 118.131C269.242 121.791 274.252 143.753 276.391 154.276M285.097 74.6641C287.244 77.0224 289.398 80.9554 291.512 85.6451M303.426 121.333C301.265 112.705 296.616 96.9693 291.512 85.6451M272.725 92.9658C273.059 89.2955 273.411 84.7828 273.655 79.6971M272.725 92.9658C267.532 92.0507 256.504 87.8413 253.938 78.3245C256.842 79.5446 264.852 81.5272 273.655 79.6971M272.725 92.9658C274.318 89.6436 276.105 84.975 277.456 79.6971M224.936 22.0469C221.009 25.3864 217.654 28.9293 215.447 32.5703C214.985 29.276 209.145 21.268 206.283 17.6757M224.936 22.0469C229.75 17.9535 235.426 14.1656 240.907 10.8766M224.936 22.0469C220.964 20.3793 214.15 18.3946 206.283 17.6757M120.432 26.1648C111.498 26.1648 101.64 16.7999 92.1859 11.6387M120.432 26.1648C107.816 32.8083 95.9307 44.2202 87.3131 62.7681M120.432 26.1648C121.853 25.4164 123.284 24.7286 124.72 24.0978M73.9207 75.1217C76.06 72.9966 78.1985 71.0303 80.2722 69.2474M73.9207 75.1217C73.1632 69.4005 72.7565 62.5508 72.6747 55.4474M73.9207 75.1217C71.1024 77.9211 68.2829 80.996 65.6091 84.2897M126.552 32.5703C125.182 33.4642 123.804 34.4694 122.428 35.573M148.547 25.2497C143.507 23.8771 136.481 27.5374 132.968 30.7402M80.2722 69.2474C82.5135 67.3204 84.6789 65.6077 86.6872 64.1407C86.8939 63.6789 87.1025 63.2213 87.3131 62.7681M80.2722 69.2474C78.138 73.0694 76.3269 76.9021 74.7984 80.6122M67.442 108.522C67.7935 103.725 69.763 92.8339 74.7984 80.6122M70.1862 155.649C68.2847 153.626 66.7486 150.366 65.6141 146.498M70.1862 155.649C70.2862 155.301 70.3817 154.951 70.4724 154.599M70.1862 155.649C67.5904 164.689 61.953 172.682 58.7358 176.238M58.7358 176.238C64.2344 178.068 73.8215 173.188 77.64 170.29C79.1992 177.062 82.6797 182.882 84.8544 185.623M58.7358 176.238C62.077 172.545 68.0285 164.066 70.4724 154.599M77.0646 160.224C75.5983 170.839 81.6468 181.58 84.8544 185.623M84.8544 185.623C85.1598 181.427 86.229 171.754 88.0619 166.63C88.7002 167.871 89.5631 169.447 90.595 171.205M84.8544 185.623C86.9006 185.368 88.8521 185.192 90.595 185.08M90.595 171.205C94.255 177.441 100.041 185.967 105.474 189.965C104.106 186.423 102.255 180.939 100.667 174.866M90.595 171.205C90.4219 174.805 90.4965 178.873 90.5529 181.956C90.5754 183.184 90.595 184.256 90.595 185.08M90.595 185.08C91.8557 184.999 93.0072 184.951 94.0065 184.932C97.0754 189.528 95.2199 197.866 93.2797 203.233M127.927 60.0228C104.833 74.6641 86.6872 111.267 86.6872 128.196M134.342 82.8999C125.178 85.8281 114.333 102.422 110.056 110.352M196.202 31.6553C207.566 38.6099 212.545 47.6692 213.614 51.3295M220.946 62.3105C226.811 67.0689 232.86 81.3747 235.151 87.9328M182.914 42.1787C175.582 40.7146 171 44.0089 171 48.1267C167.701 63.8662 187.496 87.0177 198.035 92.9658C190.703 83.4489 184.288 62.3105 187.496 52.2446M155.42 72.3764C151.021 80.7952 149.463 116.3 156.795 130.942C148.508 122.917 142.973 104.414 141.488 88.8479M159.086 57.2776C153.435 57.4301 145.798 60.0228 142.132 70.5463C140.977 75.1572 140.805 81.6922 141.488 88.8479M180.622 86.1027C177.323 111.725 158.781 143.143 149.922 155.649M210.407 82.8999C208.658 98.6197 203.095 111.175 195.728 119.503M206.283 92.9658C200.02 102.422 187.496 126.598 173.291 130.942C181.539 132.772 189.201 126.882 195.728 119.503M210.407 103.032C211.873 105.96 212.545 110.352 212.698 112.183M240.907 150.158C242.075 156.13 242.867 161.908 243.327 167.087M240.907 150.158C240.807 159.513 238.4 167.186 235.369 173.035M206.283 187.275C212.24 187.677 220.397 181.847 221.404 177.153C221.404 182.949 222.779 195.089 228.277 197.285C227.361 194.845 225.528 189.049 225.528 185.389C228.138 183.494 232.113 179.317 235.369 173.035M206.283 187.275C209.472 183.326 212.714 176.56 214.869 169.833M206.283 187.275C202.25 190.525 181.997 190.88 173.118 184.236M243.327 167.087C240.452 167.453 238.511 172.12 237.9 174.408L235.369 173.035M218.197 153.691C218.441 155.564 218.118 158.005 217.508 160.682M218.197 153.691C218.684 153.888 219.142 154.084 219.571 154.276M218.197 153.691C217.928 153.583 217.651 153.474 217.366 153.366M122.428 163.885C124.628 160.956 126.094 162.665 126.552 163.885M122.428 163.885C121.207 166.172 120.596 170.748 121.512 174.866C121.97 176.238 121.42 177.885 124.72 177.153C126.552 175.781 128.752 169.375 126.552 163.885M122.428 163.885C123.162 165.715 125.178 165.715 126.552 163.885M100.667 174.866C103.78 180.722 111.584 186.762 115.097 189.049C117.388 190.541 120.954 190.192 122.887 189.965C128.08 189.354 138.466 182.552 138.466 160.224M100.667 174.866C99.5841 170.726 98.6229 166.313 98.0187 162.055M141.488 88.8479C138.115 95.4558 136.1 102.439 135.119 109.437M149.922 159.767C148.455 167.453 142.285 172.73 139.383 174.408M139.383 174.408C145.248 177.015 150.991 171.529 153.129 168.46C154.596 178.709 168.098 184.932 174.666 186.762C174.094 185.962 173.579 185.116 173.118 184.236M139.383 174.408C141.387 173.249 144.951 170.373 147.447 166.172C144.795 162.509 142.096 157.293 139.845 151.074M169.625 162.055C169.469 163.341 169.363 165.081 169.383 167.087M218.197 148.438C217.28 144.32 217.28 133.229 215.447 123.621C213.614 133.138 207.963 142.507 205.366 146.002M218.197 148.438C214.01 147.2 209.671 146.402 205.366 146.002M218.197 148.438C221.7 149.475 225.097 150.821 228.277 152.502M138.466 160.224V155.649C123.345 142.327 110.782 139.796 102.267 140.247M138.466 160.224C129.558 148.786 102.725 141.456 97.6845 148.786C95.8517 151.451 97.3331 157.223 98.0187 162.055M98.0187 162.055L86.6872 145.125L92.1859 142.38C93.4545 141.901 95.3082 141.268 97.6845 140.807M135.119 109.437C131.571 114.252 127.426 118.832 123.239 122.954M135.119 109.437C134.245 115.663 134.189 121.901 134.723 127.896M102.267 140.247C101.297 140.298 100.38 140.388 99.5174 140.505M102.267 140.247C103.808 139.233 105.856 137.784 108.224 135.976M139.845 151.074C136.909 146.315 128.538 141.873 124.72 140.247M139.845 151.074C137.394 144.301 135.474 136.339 134.723 127.896M138.466 128.196C137.181 128.196 135.931 128.09 134.723 127.896M118.304 117.673C119.139 119.22 120.856 121.161 123.239 122.954M102.267 133.687C100.987 133.687 99.9006 138.233 99.5174 140.505M99.5174 140.505C98.8759 140.593 98.2646 140.695 97.6845 140.807M214.869 169.833C220.097 168.735 225.986 157.822 228.277 152.502M214.869 169.833C217.047 166.172 221.038 157.937 219.571 154.276M214.869 169.833C215.844 166.79 216.845 163.596 217.508 160.682M228.277 152.502C221.297 148.812 213.274 146.738 205.366 146.002M219.571 154.276C218.906 153.977 218.169 153.671 217.366 153.366M208.574 150.824C214.073 153.586 216.821 158.547 217.508 160.682M208.574 150.824C200.717 149.18 190.747 148.642 181.081 151.741M208.574 150.824C211.962 151.533 214.958 152.448 217.366 153.366M181.081 151.741C177.158 152.998 173.286 154.855 169.625 157.479V154.276C172.664 151.242 177.624 148.883 183.622 147.413M181.081 151.741C179.614 156.331 172.671 163.885 169.383 167.087M169.383 167.087C169.433 172.116 170.277 178.818 173.118 184.236M195.728 119.503C195.461 121.859 194.999 124.158 194.401 126.366M183.622 147.413C190.04 145.84 197.648 145.283 205.366 146.002M183.622 147.413C184.575 146.311 185.821 144.655 187.155 142.564M172.374 147.413C175.198 144.311 182.011 143.002 187.155 142.564M191.162 142.38C190.074 142.38 188.689 142.433 187.155 142.564M194.401 126.366C193.911 131.399 201.711 142.049 205.366 146.002M194.401 126.366L198.493 124.994L202.617 122.706M194.401 126.366C192.65 132.829 189.738 138.514 187.155 142.564M146.256 194.082C145.889 194.814 146.897 195.913 147.447 196.37M8.78975 189.086C5.91731 189.226 3.34409 189.577 1.4459 189.965C-0.36268 198.22 3.64085 206.354 7.87331 211.932M8.78975 189.086L7.87331 211.932M70.179 262.183C68.5528 263.293 68.4128 266.336 70.179 267.747L77.9811 270.034L85.3003 273.237C85.3003 273.806 82.598 273.295 79.2921 272.67C76.2128 272.088 72.6098 271.407 70.179 271.407C69.1246 271.617 68.4342 271.941 68.0127 272.322M70.179 262.183C61.7576 262.973 49.8769 261.341 44.9892 260.426C50.1212 271.041 62.4766 272.779 68.0127 272.322M77.2335 299.317C75.9987 319.449 84.299 339.428 88.6036 346.901M149.359 291.539C145.41 290.075 142.285 285.133 141.215 282.845C138.649 279.185 134.159 283.15 132.235 285.591M107.238 358.34C105.439 351.264 103.315 341.122 104.546 338.665C105.008 336.988 106.194 333.175 107.238 331.345C108.024 330.887 110.79 331.253 115.555 336.378C114.028 339.886 110.226 349.189 107.238 358.34ZM281.937 291.081C275.667 286.689 261.872 283.904 255.758 283.06M114.34 239.379C116.412 242.307 120.485 244.768 122.262 245.632M122.262 245.632L126.64 248.072M126.64 248.072C131.116 251.001 137.648 253.563 140.354 254.478M140.354 254.478C142.51 255.21 147.631 254.991 149.922 254.79M252.105 184.674C246.072 189.984 245.578 196.41 246.148 199.115C248.134 200.488 252.836 201.861 255.758 196.37C256.373 194.845 256.504 190.371 252.105 184.674ZM193.275 185.389C200.057 178.869 202.617 152.904 187.496 152.502C180.413 151.961 171.366 168.882 178.331 183.158C178.594 183.515 178.898 183.879 179.248 184.236M193.275 185.389C192.151 186.47 190.959 187.145 189.787 187.275C184.375 187.876 181.137 186.161 179.248 184.236M193.275 185.389C188.652 182.461 181.997 183.4 179.248 184.236M131.198 182.186C135.403 173.407 134.873 156.374 124.72 154.276C113.264 155.649 109.507 168.882 116.472 183.158C116.726 183.503 116.987 183.869 117.267 184.236M131.198 182.186C129.9 184.897 128.151 186.821 126.094 187.275C121.038 188.393 118.843 186.295 117.267 184.236M131.198 182.186C123.083 179.624 118.529 182.485 117.267 184.236M108.224 135.976C107.613 131.705 107.124 121.516 110.056 114.928C97.9595 129.935 96.7681 138.434 97.6845 140.807M108.224 135.976C112.542 132.678 117.925 128.185 123.239 122.954M65.6141 146.498C62.6435 136.371 62.4259 122.079 65.6091 114.928C57.5444 121.882 55.5282 137.347 55.5282 144.21C42.1348 123.552 51.9798 101.078 65.6091 84.2897M65.6141 146.498C66.2234 142.991 69.3665 134.145 77.0646 126.824C77.0646 132.314 73.3989 142.228 71.566 146.498C71.566 149.22 71.1567 151.949 70.4724 154.599M92.1859 11.6387C88.59 9.67559 85.0526 8.32066 81.6468 8.32066C77.5261 6.36844 74.6727 18.4725 73.4031 33.943M92.1859 11.6387L73.4031 33.943M73.4031 33.943C72.8435 40.7622 72.5917 48.2356 72.6747 55.4474M87.3131 62.7681C79.8475 62.7681 74.4435 57.8876 72.6747 55.4474M271.756 36.6882C269.652 23.6607 265.769 10.9636 258.978 1C254.835 3.16422 248.036 6.59833 240.907 10.8766M271.756 36.6882L240.907 10.8766M298.527 147.413C293.281 144.119 288.61 132.314 286.93 126.824C284.73 126.824 283.264 131.704 282.806 134.144C274.741 126.458 265.713 106.54 262.207 97.5412M262.207 97.5412C264.263 108.995 263.942 119.957 262.652 129.112M206.283 17.6757C197.601 16.8823 187.636 17.6303 178.79 22.0469C166.488 17.6853 145.039 15.1731 124.72 24.0978M124.72 24.0978L122.428 35.573M122.428 35.573C114.994 41.5376 107.62 50.3747 101.736 60.0228M65.6091 84.2897L74.7984 80.6122M74.7984 80.6122C79.9106 81.3442 84.8544 74.8166 86.6872 71.4613C86.4319 72.5277 86.1737 73.771 85.9413 75.1217M85.9413 75.1217C84.6448 82.6574 84.152 93.5383 89.4366 95.711C89.4366 85.1853 94.4423 71.981 101.736 60.0228M85.9413 75.1217C89.4707 74.0236 97.9414 64.5982 101.736 60.0228M311.674 87.9328C301.096 90.4951 293.835 87.4753 291.512 85.6451M291.512 85.6451C284.511 85.6451 279.239 81.6798 277.456 79.6971M89.966 248.433C89.2057 249 88.4127 249.492 87.5914 249.902C88.3725 249.354 89.165 248.866 89.966 248.433ZM94.6921 209.181C93.9443 208.077 93.1064 207.006 92.1736 205.978C92.5217 205.209 92.9023 204.277 93.2797 203.233M94.6921 209.181C92.7278 208.111 90.1751 207.533 89.0614 207.363M93.2797 203.233C92.4037 204.683 90.3605 207.489 89.0614 207.363M89.0614 207.363C89.0334 207.361 89.0057 207.357 88.9783 207.351C89.0051 207.355 89.0328 207.359 89.0614 207.363ZM102.911 313.684L102.969 313.702M102.911 313.684C102.93 313.69 102.95 313.696 102.969 313.702M157.765 245.757C144.721 244.846 132.405 241.066 122.278 236.201M184.288 165.536C183.503 168.105 183.503 172.307 184.288 175.837C184.746 176.752 184.197 178.399 187.496 177.667C189.241 176.36 190.903 170.492 189.16 165.195M184.288 165.536C184.419 165.108 184.572 164.725 184.746 164.398C186.946 161.47 188.412 163.178 188.87 164.398C188.976 164.662 189.072 164.928 189.16 165.195M184.288 165.536C185.388 166.777 187.995 165.826 189.16 165.195M134.723 127.896C130.151 127.161 126.186 125.171 123.239 122.954" stroke="#413636" stroke-width="0.4"/>
<defs>
<linearGradient id="paint0_linear_1_295" x1="186.579" y1="140.653" x2="186.125" y2="189.942" gradientUnits="userSpaceOnUse">
<stop stop-color="#25BFE9"/>
<stop offset="1" stop-color="#7D9FA8" stop-opacity="0"/>
</linearGradient>
<linearGradient id="paint1_linear_1_295" x1="186.579" y1="140.653" x2="186.125" y2="189.942" gradientUnits="userSpaceOnUse">
<stop stop-color="#25BFE9"/>
<stop offset="1" stop-color="#7D9FA8" stop-opacity="0"/>
</linearGradient>
<linearGradient id="paint2_linear_1_295" x1="162.5" y1="1" x2="179.114" y2="320.93" gradientUnits="userSpaceOnUse">
<stop stop-color="#FFD47E"/>
<stop offset="1" stop-color="#FAE5BB" stop-opacity="0"/>
</linearGradient>
</defs>
</svg>
