<svg width="129" height="30" viewBox="0 0 129 30" fill="none" xmlns="http://www.w3.org/2000/svg">
<path d="M3 6H12L11 9H6.5L7.13353 12.4128H10.1335L9 15.5H7.5L8 20L7 23L4.5 22.5L3 6Z" fill="#2B5428"/>
<path d="M9.5 20L12 20.5L16 19.5L16.5 15.5H11L12.0125 12.4128H17.0125L17.5 9H13L14 6H21L19.5 22.5L12 24L8.5 23.5L9.5 20Z" fill="#2B5428"/>
<path fill-rule="evenodd" clip-rule="evenodd" d="M0 3H24L22 24.5L12 27L2 24.5L0 3ZM12 6H3L4.5 22.5L7 23L8 20L7.5 15.5H9L10.1335 12.4128H7.13353L6.5 9H11L12 6ZM12 20.5L9.5 20L8.5 23.5L12 24L19.5 22.5L21 6H14L13 9H17.5L17.0125 12.4128H12.0125L11 15.5H16.5L16 19.5L12 20.5Z" fill="#F8F8F8"/>
<line x1="29.25" x2="29.25" y2="30" stroke="#F8F8F8" stroke-width="0.5"/>
<path d="M38.78 21H35.8V6.72H43.98V9.2H38.78V12.88H43.62V15.36H38.78V21ZM61.4966 15.96C61.4966 16.9467 61.2766 17.84 60.8366 18.64C60.4099 19.4267 59.7566 20.0533 58.8766 20.52C58.0099 20.9733 56.9099 21.2 55.5766 21.2C53.6832 21.2 52.2432 20.72 51.2566 19.76C50.2699 18.7867 49.7766 17.5067 49.7766 15.92V6.72H52.7966V15.46C52.7966 16.6333 53.0366 17.46 53.5166 17.94C53.9966 18.42 54.7099 18.66 55.6566 18.66C56.3232 18.66 56.8632 18.5467 57.2766 18.32C57.6899 18.0933 57.9899 17.74 58.1766 17.26C58.3766 16.78 58.4766 16.1733 58.4766 15.44V6.72H61.4966V15.96ZM72.2538 6.72C73.5471 6.72 74.6138 6.88 75.4538 7.2C76.2938 7.50667 76.9204 7.98 77.3338 8.62C77.7471 9.24667 77.9538 10.04 77.9538 11C77.9538 11.6533 77.8271 12.2267 77.5738 12.72C77.3338 13.2 77.0071 13.6133 76.5938 13.96C76.1938 14.2933 75.7604 14.5667 75.2938 14.78L79.4938 21H76.1338L72.7338 15.52H71.1138V21H68.0938V6.72H72.2538ZM72.0338 9.2H71.1138V13.06H72.0938C72.7604 13.06 73.3004 12.9867 73.7138 12.84C74.1271 12.6933 74.4271 12.4733 74.6138 12.18C74.8004 11.8733 74.8938 11.5067 74.8938 11.08C74.8938 10.6267 74.7871 10.2667 74.5738 10C74.3738 9.72 74.0604 9.52 73.6338 9.4C73.2204 9.26667 72.6871 9.2 72.0338 9.2ZM89.7369 21H83.2369V19.28L84.9769 18.48V9.24L83.2369 8.44V6.72H89.7369V8.44L87.9969 9.24V18.48L89.7369 19.28V21ZM108.23 13.84C108.23 14.9467 108.09 15.9533 107.81 16.86C107.544 17.7533 107.13 18.5267 106.57 19.18C106.024 19.8333 105.317 20.3333 104.45 20.68C103.597 21.0267 102.59 21.2 101.43 21.2C100.27 21.2 99.257 21.0267 98.3903 20.68C97.537 20.32 96.8303 19.82 96.2703 19.18C95.7236 18.5267 95.3103 17.7467 95.0303 16.84C94.7636 15.9333 94.6303 14.9267 94.6303 13.82C94.6303 12.34 94.8703 11.0533 95.3503 9.96C95.8436 8.86667 96.5903 8.02 97.5903 7.42C98.6036 6.80667 99.8903 6.5 101.45 6.5C102.997 6.5 104.27 6.80667 105.27 7.42C106.27 8.02 107.01 8.87333 107.49 9.98C107.984 11.0733 108.23 12.36 108.23 13.84ZM97.8103 13.84C97.8103 14.84 97.937 15.7 98.1903 16.42C98.4436 17.14 98.837 17.6933 99.3703 18.08C99.9036 18.4667 100.59 18.66 101.43 18.66C102.297 18.66 102.99 18.4667 103.51 18.08C104.044 17.6933 104.43 17.14 104.67 16.42C104.924 15.7 105.05 14.84 105.05 13.84C105.05 12.3333 104.77 11.1533 104.21 10.3C103.65 9.44667 102.73 9.02 101.45 9.02C100.597 9.02 99.9036 9.21333 99.3703 9.6C98.837 9.98667 98.4436 10.54 98.1903 11.26C97.937 11.98 97.8103 12.84 97.8103 13.84ZM126.948 21H123.108L116.888 10.2H116.808C116.822 10.5333 116.835 10.8733 116.848 11.22C116.862 11.5533 116.875 11.8933 116.888 12.24C116.915 12.5733 116.935 12.9133 116.948 13.26C116.962 13.5933 116.975 13.9333 116.988 14.28V21H114.288V6.72H118.108L124.308 17.42H124.368C124.355 17.0867 124.342 16.76 124.328 16.44C124.315 16.1067 124.302 15.78 124.288 15.46C124.288 15.1267 124.282 14.8 124.268 14.48C124.255 14.1467 124.242 13.8133 124.228 13.48V6.72H126.948V21Z" fill="#F8F8F8"/>
</svg>
