<svg width="21" height="20" viewBox="0 0 21 20" fill="none" xmlns="http://www.w3.org/2000/svg">
<path d="M9.06016 4.23925L5.67725 0.33587C5.28696 -0.11446 4.57233 -0.11155 4.11915 0.34223L1.3372 3.12787C0.50925 3.95692 0.27226 5.1882 0.75068 6.17518C3.63226 12.1199 8.37551 16.8695 14.3124 19.7549C15.2981 20.2339 16.5278 19.9966 17.3557 19.1676L20.1641 16.3554C20.6191 15.8999 20.6199 15.181 20.1661 14.7914L16.2455 11.4264C15.8352 11.0742 15.1986 11.1204 14.7874 11.5322L13.4236 12.8978C13.2719 13.0497 13.0439 13.086 12.8705 12.986C10.6373 11.6984 8.79646 9.8552 7.51053 7.61904C7.41067 7.44539 7.44699 7.21706 7.59863 7.06522L8.95826 5.70377C9.37126 5.29024 9.41586 4.64965 9.06016 4.23925Z" fill="#F8F8F8"/>
</svg>
